#!OML:ASF H:\Terrain\Patient Classification 1\Walking\steve\steve.ASF
:FULLY-SPECIFIED
:DEGREES
155
root 9.68985 16.3194 6.53824 5.90953 -13.6151 2.92101
lowerback 0.493446 3.76666 -4.35725
upperback -2.36359 4.89361 -1.8693
thorax -2.91232 2.51516 0.348998
lowerneck -10.828 -1.03082 -1.90997
upperneck 11.4318 -1.69079 4.5402
head 5.27413 -0.595535 1.6007
rclavicle 1.4064e-014 1.03368e-014
rhumerus -40.6041 2.18655 -90.3536
rradius 57.0674
rwrist -15.0855
rhand -19.9472 -42.0576
rfingers 7.12502
rthumb 6.39082 -71.9411
lclavicle 1.4064e-014 1.03368e-014
lhumerus -47.5616 22.5831 64.0574
lradius 11.5362
lwrist -16.3376
lhand -20.3965 -8.23384
lfingers 7.12502
lthumb 5.95699 21.6624
rfemur -13.9551 5.46189 15.8357
rtibia 69.4942
rfoot 10.1219 0.0283665
rtoes -5.90003
lfemur -27.9472 4.70368 -27.5038
ltibia 33.9559
lfoot -11.5848 -2.43728
ltoes -0.474612
156
root 9.69335 16.3434 6.77795 5.91676 -13.1583 3.20967
lowerback 0.356271 3.58956 -4.51459
upperback -2.31068 4.6631 -1.93127
thorax -2.77888 2.40046 0.393396
lowerneck -10.9323 -1.05232 -1.84148
upperneck 11.701 -1.7014 4.25698
head 5.37277 -0.613493 1.50052
rclavicle -1.0958e-014 5.56597e-015
rhumerus -40.8742 1.70645 -90.0796
rradius 54.683
rwrist -15.2384
rhand -20.4744 -39.8731
rfingers 7.12502
rthumb 5.8818 -69.7715
lclavicle -1.0958e-014 5.56597e-015
lhumerus -45.5817 21.1906 66.3754
lradius 11.601
lwrist -16.4295
lhand -20.1701 -9.33019
lfingers 7.12502
lthumb 6.17559 20.5598
rfemur -15.9581 5.24892 15.823
rtibia 70.5894
rfoot 7.75565 0.934438
rtoes -10.6165
lfemur -26.8283 4.17244 -27.9421
ltibia 33.5348
lfoot -12.4 -2.5735
ltoes 1.02991
157
root 9.69318 16.3449 6.99726 6.22398 -12.5533 3.25978
lowerback 0.302105 3.3661 -4.47962
upperback -2.4539 4.36303 -1.95322
thorax -2.87932 2.25314 0.360199
lowerneck -10.7962 -1.08469 -1.82152
upperneck 11.8816 -1.73627 4.11383
head 5.4056 -0.639611 1.45046
rclavicle -4.22914e-014 3.83654e-014
rhumerus -41.2468 0.944337 -89.9176
rradius 52.2234
rwrist -15.3085
rhand -21.0277 -39.4879
rfingers 7.12502
rthumb 5.34756 -69.4004
lclavicle -4.22914e-014 3.83654e-014
lhumerus -44.2112 21.1634 67.301
lradius 12.0466
lwrist -18.4001
lhand -19.8887 -10.6476
lfingers 7.12502
lthumb 6.44731 19.2342
rfemur -18.3519 5.0699 16.1663
rtibia 71.5433
rfoot 5.30768 1.87146
rtoes -16.0588
lfemur -26.1271 3.63708 -28.1457
ltibia 33.2376
lfoot -13.2125 -2.62593
ltoes -1.37469
158
root 9.68741 16.352 7.20822 6.37865 -11.9069 3.19497
lowerback 0.524858 3.14951 -4.46134
upperback -2.56632 4.05895 -1.85995
thorax -3.11396 2.10703 0.438308
lowerneck -10.8856 -1.12047 -1.96816
upperneck 12.2867 -1.76663 4.067
head 5.54882 -0.659865 1.45833
rclavicle -4.28132e-014 3.89618e-014
rhumerus -41.6844 0.112608 -89.4933
rradius 49.7009
rwrist -15.2453
rhand -21.2741 -39.2426
rfingers 7.12502
rthumb 5.10974 -69.161
lclavicle -4.28132e-014 3.89618e-014
lhumerus -42.5933 19.9196 69.3303
lradius 12.7081
lwrist -18.7754
lhand -20.2772 -10.9623
lfingers 7.12502
lthumb 6.07222 18.9307
rfemur -20.0848 4.80205 16.4924
rtibia 72.1796
rfoot 2.86403 2.52032
rtoes -12.4951
lfemur -25.3941 3.29071 -28.1744
ltibia 33.1411
lfoot -13.9614 -2.89186
ltoes -3.98237
159
root 9.68087 16.3803 7.43231 6.39988 -11.378 3.06869
lowerback 0.769428 3.00923 -4.41496
upperback -2.60469 3.86039 -1.73027
thorax -3.28878 2.01168 0.537705
lowerneck -10.8783 -1.18039 -2.09245
upperneck 12.5412 -1.82756 4.01166
head 5.62959 -0.697381 1.45716
rclavicle -2.05866e-014 -1.82882e-014
rhumerus -42.2507 -0.837524 -88.6846
rradius 47.0183
rwrist -14.1746
rhand -20.489 -36.3794
rfingers 7.12502
rthumb 5.86771 -66.2782
lclavicle -2.05866e-014 -1.82882e-014
lhumerus -40.8553 18.0246 71.6894
lradius 13.2808
lwrist -18.2298
lhand -20.5652 -11.3599
lfingers 7.12502
lthumb 5.79413 18.5408
rfemur -22.1616 4.21156 17.0354
rtibia 72.3656
rfoot 1.06675 2.93977
rtoes -19.6084
lfemur -24.3995 3.10407 -28.115
ltibia 33.0177
lfoot -14.6517 -3.47979
ltoes -3.38861
160
root 9.67961 16.4008 7.67397 6.41524 -10.98 3.10959
lowerback 0.638556 2.93982 -4.41459
upperback -2.55673 3.77904 -1.67648
thorax -3.16516 1.96973 0.605748
lowerneck -10.5423 -1.18913 -2.33749
upperneck 12.4339 -1.82994 4.22204
head 5.54291 -0.699605 1.56408
rclavicle 5.52249e-015 -8.15017e-015
rhumerus -43.0695 -1.95832 -87.9119
rradius 45.3642
rwrist -12.6752
rhand -20.0579 -37.0044
rfingers 7.12502
rthumb 6.2839 -66.8912
lclavicle 5.52249e-015 -8.15017e-015
lhumerus -39.1338 16.7672 73.4364
lradius 13.7627
lwrist -18.2316
lhand -21.1114 -13.0825
lfingers 7.12502
lthumb 5.26676 16.832
rfemur -23.7188 3.90439 17.2844
rtibia 72.1891
rfoot -1.01967 3.06152
rtoes -19.9589
lfemur -23.3835 2.86342 -28.2491
ltibia 32.8533
lfoot -15.2319 -3.85336
ltoes -3.22684
161
root 9.67954 16.402 7.91545 6.42968 -10.5251 3.22615
lowerback 0.394349 2.83458 -4.49247
upperback -2.46691 3.65606 -1.63624
thorax -2.93664 1.9065 0.712219
lowerneck -10.2571 -1.13134 -2.39529
upperneck 12.3515 -1.74545 4.23491
head 5.46629 -0.664135 1.58477
rclavicle -4.40432e-015 1.07344e-014
rhumerus -43.8174 -3.11874 -87.2366
rradius 43.3743
rwrist -11.9224
rhand -21.9403 -37.2951
rfingers 7.12502
rthumb 4.46638 -67.228
lclavicle -4.40432e-015 1.07344e-014
lhumerus -37.3751 15.1204 75.3472
lradius 14.4108
lwrist -17.5973
lhand -22.5726 -15.5432
lfingers 7.12502
lthumb 3.8558 14.4017
rfemur -25.1483 3.58342 17.4674
rtibia 71.8088
rfoot -3.2521 2.76469
rtoes -18.7347
lfemur -22.288 2.7595 -28.5278
ltibia 32.5145
lfoot -15.6099 -4.10673
ltoes -2.83172
162
root 9.67109 16.3973 8.13735 6.58291 -10.136 3.12375
lowerback 0.242445 2.72313 -4.53577
upperback -2.40135 3.52107 -1.52168
thorax -2.78676 1.83863 0.869177
lowerneck -10.4346 -1.14493 -2.08608
upperneck 12.579 -1.76065 3.82876
head 5.56197 -0.682209 1.40535
rclavicle -2.64756e-014 -7.7526e-015
rhumerus -44.5013 -3.90627 -86.569
rradius 41.4049
rwrist -11.2955
rhand -23.0545 -36.9092
rfingers 7.12502
rthumb 3.39044 -66.862
lclavicle -2.64756e-014 -7.7526e-015
lhumerus -35.5913 12.7477 77.5348
lradius 15.1501
lwrist -16.113
lhand -23.9029 -17.0514
lfingers 7.12502
lthumb 2.57113 12.9128
rfemur -26.8089 3.25638 17.9289
rtibia 71.3098
rfoot -5.55871 2.34593
rtoes -20.2635
lfemur -21.31 2.8246 -28.5801
ltibia 32.0553
lfoot -15.7555 -4.19928
ltoes -2.52881
163
root 9.65892 16.4187 8.36403 6.75684 -9.72836 3.12635
lowerback 0.125668 2.59055 -4.72564
upperback -2.35914 3.3517 -1.43877
thorax -2.68549 1.75715 1.07245
lowerneck -10.7364 -1.1604 -2.14556
upperneck 12.8609 -1.79431 3.94983
head 5.70426 -0.687213 1.45048
rclavicle 4.05148e-014 1.98785e-016
rhumerus -45.1034 -3.89365 -86.5701
rradius 43.7398
rwrist -7.8563
rhand -16.3591 -75.4069
rfingers 7.12502
rthumb 9.85374 105.156
lclavicle 4.05148e-014 1.98785e-016
lhumerus -33.9934 9.89082 79.7109
lradius 16.2282
lwrist -13.9376
lhand -22.4601 -15.3043
lfingers 7.12502
lthumb 3.96446 14.6386
rfemur -28.3121 2.8337 18.2461
rtibia 70.5385
rfoot -8.15467 2.22526
rtoes -22.9091
lfemur -20.3261 2.74291 -28.7101
ltibia 31.5259
lfoot -15.8907 -4.48026
ltoes -0.59269
164
root 9.65309 16.4351 8.60083 6.73035 -9.11148 3.53957
lowerback 0.146666 2.38217 -5.2082
upperback -2.32004 3.06627 -1.43435
thorax -2.66895 1.62412 1.35377
lowerneck -10.5864 -1.13452 -2.5971
upperneck 12.7651 -1.75326 4.42858
head 5.6551 -0.656497 1.6791
rclavicle -2.29099e-014 -5.1684e-015
rhumerus -45.4973 -4.88087 -85.6618
rradius 38.3881
rwrist -11.3216
rhand -24.2665 -42.9204
rfingers 7.12502
rthumb 2.21997 -72.8886
lclavicle -2.29099e-014 -5.1684e-015
lhumerus -32.7011 7.65022 81.3615
lradius 17.6744
lwrist -11.8359
lhand -18.2585 -11.9305
lfingers 7.12502
lthumb 8.02081 17.8973
rfemur -29.6656 2.31478 18.0104
rtibia 69.6256
rfoot -10.4744 2.63201
rtoes -18.4004
lfemur -19.148 2.46926 -29.2655
ltibia 31.0823
lfoot -16.4733 -4.68772
ltoes -0.80313
165
root 9.64714 16.4234 8.82796 6.66551 -8.53796 3.66815
lowerback 0.345568 2.22236 -5.46359
upperback -2.31728 2.83802 -1.31475
thorax -2.78355 1.51959 1.61723
lowerneck -10.4663 -1.20327 -2.71988
upperneck 12.8593 -1.82081 4.3542
head 5.6669 -0.701516 1.67108
rclavicle 7.2749e-014 -9.93923e-017
rhumerus -46.0134 -6.58004 -83.8834
rradius 35.5003
rwrist -8.05275
rhand -22.5195 -39.0017
rfingers 7.12502
rthumb 3.90713 -68.9457
lclavicle 7.2749e-014 -9.93923e-017
lhumerus -31.5333 5.77229 82.7015
lradius 19.1051
lwrist -9.77966
lhand -15.7905 -10.3609
lfingers 7.12502
lthumb 10.4023 19.3618
rfemur -31.0739 2.1319 18.0665
rtibia 68.5925
rfoot -12.4329 3.21681
rtoes -10.5606
lfemur -17.991 2.25742 -29.4626
ltibia 30.7303
lfoot -16.9154 -5.09197
ltoes -0.410128
166
root 9.63758 16.4192 9.05467 6.64513 -8.07841 3.29655
lowerback 0.670598 2.14254 -5.2737
upperback -2.3771 2.71582 -1.11914
thorax -3.0201 1.46307 1.70235
lowerneck -10.7539 -1.34369 -2.48019
upperneck 13.4585 -2.01788 4.0309
head 5.90606 -0.801915 1.51454
rclavicle -1.58686e-014 9.14409e-015
rhumerus -47.111 -7.52621 -82.7126
rradius 33.9048
rwrist -6.76185
rhand -22.5049 -36.8979
rfingers 7.12502
rthumb 3.92122 -66.8415
lclavicle -1.58686e-014 9.14409e-015
lhumerus -30.5832 3.84377 83.8218
lradius 20.6532
lwrist -7.70498
lhand -15.2861 -9.97749
lfingers 7.12502
lthumb 10.8888 19.7202
rfemur -32.2974 2.20169 18.7446
rtibia 67.2568
rfoot -13.9543 3.02461
rtoes -7.83921
lfemur -16.8998 2.1758 -29.0654
ltibia 30.4798
lfoot -16.9331 -5.96174
ltoes 2.21756
167
root 9.63159 16.4269 9.2934 6.53838 -7.6061 3.31345
lowerback 0.954288 2.06941 -5.36915
upperback -2.42382 2.59663 -1.06524
thorax -3.22773 1.41181 1.80326
lowerneck -10.8039 -1.42699 -2.327
upperneck 13.7737 -2.1453 3.89282
head 6.01533 -0.863575 1.43559
rclavicle -3.81884e-014 2.28602e-015
rhumerus -48.1472 -8.40353 -81.664
rradius 32.6256
rwrist -5.91244
rhand -21.9565 -38.8009
rfingers 7.12502
rthumb 4.45073 -68.7341
lclavicle -3.81884e-014 2.28602e-015
lhumerus -29.8592 1.91344 84.7996
lradius 22.5135
lwrist -5.52936
lhand -16.249 -11.4052
lfingers 7.12502
lthumb 9.95996 18.3392
rfemur -33.3106 2.0618 18.9952
rtibia 65.6804
rfoot -15.0545 1.77897
rtoes -10.9427
lfemur -15.6798 2.17346 -29.1415
ltibia 30.2825
lfoot -17.0503 -6.4505
ltoes 4.63739
